<svg id="Layer_1" data-name="Layer 1" xmlns="http://www.w3.org/2000/svg" viewBox="0 0 1280 467.51"><defs><style>.cls-1,.cls-3,.cls-5{fill:#395212;}.cls-1{stroke:#395212;stroke-width:6px;}.cls-1,.cls-2{stroke-miterlimit:10;}.cls-2{font-size:200.91px;stroke:#84a02b;stroke-width:2px;font-family:Allura;}.cls-2,.cls-6{fill:#84a02b;}.cls-3{font-size:39.49px;font-family:Comfortaa;font-weight:700;}.cls-4{letter-spacing:-1px;}</style></defs><title>elite eye care-final</title><path class="cls-1" d="M272.28,241.58a4.32,4.32,0,0,1,2.59,1.11q1.14,1,3.52,6.63a25.13,25.13,0,0,1,2.39,9.34,35.45,35.45,0,0,1-.93,7.83q-0.93,4.12-3,4.12-3.53,0-5.81-7.94a73.23,73.23,0,0,0-3.32-9.95q-5.81-11.85-12.44-17.28Q249.25,230,243,230a15.37,15.37,0,0,0-5.39,1q-13.27,5.42-13.27,25.32a56.55,56.55,0,0,0,2.49,15.17,44.33,44.33,0,0,0,7.67,15.37q1,1.21,11,2,5.18,0.6,6,3.52T249,296.93q-1.87,2.21-14.31-1.21-3.32-.8-4.36-1-11.2.2-25.3,4.82a81.34,81.34,0,0,0-25.93,14.16q-11.82,9.55-11.82,21a16.53,16.53,0,0,0,7.26,14q7.26,5.32,23.33,5.32t35.88-4.82q19.81-4.82,31.11-10.45a95.2,95.2,0,0,0,22.3-15.87q11-10.25,11-17.68a16.37,16.37,0,0,0-.1-2,0.87,0.87,0,0,1,.31-1,1.68,1.68,0,0,1,2.07.2q2.69,5,2.7,7.84a22.44,22.44,0,0,1-5.6,14.87,77,77,0,0,1-22,18.08q-12.24,6.63-33.5,11.25T206.74,359a102.27,102.27,0,0,1-24-2.41A35.92,35.92,0,0,1,165.67,347a24.12,24.12,0,0,1-7.26-17.78q0-10.55,5.29-17.88a38,38,0,0,1,12.65-11.35,75.62,75.62,0,0,1,17.73-6.63,171.49,171.49,0,0,1,34.22-5,61.68,61.68,0,0,1-16-34.36q-0.21-2.21-.21-4.22a25.75,25.75,0,0,1,3.63-13.36q3.62-6.13,12.13-8.74T240.55,225a27.18,27.18,0,0,1,6.12.5q2,0.5,3.42,1a14.5,14.5,0,0,1,2.9,1.41q1.45,0.9,2.49,1.51a16,16,0,0,1,2.49,1.91q1.45,1.31,2.08,1.81c0.42,0.34,1.17,1,2.28,2a14.42,14.42,0,0,0,2.07,1.71q3.11,3.62,6,4.22A3.19,3.19,0,0,0,272.28,241.58Z"/><path class="cls-1" d="M334.08,318.23q-2.49,6.83-2.7,9.14t-0.21,6.23a12.87,12.87,0,0,0,2.07,7.13q3.53,5.42,11.82.8,6.22-3.21,15.76-11.75a107.06,107.06,0,0,0,14.73-15.57,1.41,1.41,0,0,1,1.24-.6q1.87,0,1,2.61-3.11,5.42-11.51,13.86a125.9,125.9,0,0,1-15.25,13.36q-6.84,4.92-13.69,4.92-15.76,0-15.76-14.87v-1.21q0.83-14.06,14.73-42.49t25.1-42.89l6.43-7.84a72.89,72.89,0,0,1,6.64-6.43q8.29-7.63,17.11-7.63t11.93,5.22a10.67,10.67,0,0,1,1,5.22q0,3.42-3.11,9.64Q380.13,281.06,334.08,318.23Zm61.81-76.75q2.49-4.42,2.49-6.83,0-4.22-3.53-4.22-2.91,0-7.26,3.21Q371,246.11,355.45,273,343,294.72,337.2,310.19q14.31-9.44,32-30.74T395.89,241.48Z"/><path class="cls-1" d="M406.05,288.29q5.18,0,6.22,3.21a4.86,4.86,0,0,1-.52,3.52,29.56,29.56,0,0,0-1.35,2.71c-0.28.67-.49,1.21-0.62,1.61q-1,2-2.07,3.82-11.82,22.9-12.45,29.13a41.92,41.92,0,0,0-.21,4.62,6.56,6.56,0,0,0,1.66,4.62q2.9,3.22,8.3.4t15-11.25a109.63,109.63,0,0,0,15.66-16.47,1.43,1.43,0,0,1,1.87-.5,1.45,1.45,0,0,1,1,1,2,2,0,0,1-.41,1.11q-3.11,5.42-11.2,13.86-13.27,13.86-22.19,17.08a27.47,27.47,0,0,1-8.71,1.81q-8.3,0-11-7.63a12.09,12.09,0,0,1-.42-3.42q0-7,6.64-21.3-1,2.21-8.09,10-1.87,2-2.9,0a2.39,2.39,0,0,1-.21-1.11,2.94,2.94,0,0,1,.83-1.71q10.16-12.25,16-20.69a3.15,3.15,0,0,1,.42-2.61q4.15-11.25,7.26-11.85h1.45Zm16.39-26.72L420.78,268q0,1.81-2.7,5.83t-4.15,4q-8.92,0-8.92-4.22,0-.8,8.92-7.43l3.53-2.61q3.31-2.81,4.15-2.81A0.72,0.72,0,0,1,422.44,261.57Z"/><path class="cls-1" d="M479.68,287.69q16-1.4,19.39-1.41t3.42,1q0,1.21-4.87,2.51t-23.75,3.31q-1,1.81-2.49,4.22-3.11,4.82-3.32,5.83-11.82,22.9-12.45,29.13a41.92,41.92,0,0,0-.21,4.62,6.56,6.56,0,0,0,1.66,4.62q2.9,3.22,8.3.4t15-11.25a109.63,109.63,0,0,0,15.66-16.47,1.55,1.55,0,0,1,2.07-.4q3.11,1.41-10.79,15.87-13.27,13.86-22.19,17.08a27.47,27.47,0,0,1-8.71,1.81q-8.3,0-11-7.63a12.09,12.09,0,0,1-.42-3.42q0-7,6.64-21.3-1,2.21-8.09,10-1.87,2-2.9,0a2.39,2.39,0,0,1-.21-1.11,2.94,2.94,0,0,1,.83-1.71q10.16-12.25,16-20.69,0-.2,4.56-8.44a22.1,22.1,0,0,1-4.25.4,3.85,3.85,0,0,1-3.22-1.31,2.79,2.79,0,0,1-.21-3.11q1.45-3.21,11-3.62a0.84,0.84,0,0,1,.83-0.4l10.37-18.68q0.83-1.61,1.87-3.31t1.56-2.61c0.35-.6.73-1.24,1.14-1.91a7.78,7.78,0,0,1,1-1.41l0.83-.8c0.55-.8,2.18-1.21,4.87-1.21s4.53,0.74,5.5,2.21a4.53,4.53,0,0,1,.62,2.71,8.1,8.1,0,0,1-1.45,4.22,9.93,9.93,0,0,1-3.11,3.31,5.87,5.87,0,0,0-2.28,2.21l-10,16.88Z"/><path class="cls-1" d="M554.76,285.48q11.2,0,11.2,10.45a12.62,12.62,0,0,1-3.11,8.84q-5.19,7.44-16.8,13t-19.7,6.13q-2.91.2-3.11-1.61a0.71,0.71,0,0,1,.52-1,4.65,4.65,0,0,1,1.14-.2q4.77-.4,12.24-4.42,13.89-7.23,20.33-14.87a11.75,11.75,0,0,0,2.7-6.93q0-3.32-3.32-3.31-2.7,0-7.26,2.21-9.75,4.42-20.53,15.37t-14.1,21.4a20.52,20.52,0,0,0-1,6.33,8.5,8.5,0,0,0,2.7,5.93q2.69,2.81,8.3,2.81a39.55,39.55,0,0,0,14.31-3.21q23.43-9.24,36.09-27.93,1.24-1.61,2.28-.6a1.19,1.19,0,0,1,.83,1,2.43,2.43,0,0,1-.62,1.41A72.41,72.41,0,0,1,562,334.1q-18.46,15.26-35.88,15.27-14.93,0-20.95-8.64a14.46,14.46,0,0,1-2.28-8.24,31.26,31.26,0,0,1,2.7-11.45q5.18-11.45,22.19-23.51T554.76,285.48Z"/><text class="cls-2" transform="translate(579.46 343.95)">Eyecare</text><text class="cls-3" transform="translate(783.17 413.39)">Emp<tspan class="cls-4" x="92.44" y="0">o</tspan><tspan x="117.91" y="0">w</tspan><tspan x="145.87" y="0">ering vision</tspan></text><path class="cls-5" d="M547.35,124.84C538,125,535,137.18,537,143.54c1.69,5.58,7.59,15.76,24.39,15.7,15.85-.05,26.61-15.75,26.61-30.16,0-19.78-20.17-36.95-39.36-36.95-50.45,0-81.12,27.3-93,38.24a4.42,4.42,0,0,0-.19,6.33c18.31,18.85,39,35.09,58.73,36.9-23.64-5.39-37.84-20-52.63-38a2.78,2.78,0,0,1,.49-4c7.33-5.4,12.21-8.8,28.43-16.21,23.31-10.65,45.57-12.35,56.25-8a21.79,21.79,0,0,1,13.77,20.78c-0.12,11.28-7.34,14.88-12.57,14.88-3.14,0-8.33-3.42-8.33-8.62C539.56,126.78,547.35,124.84,547.35,124.84Z"/><path class="cls-6" d="M551.49,142.42c9.4-.16,12.31-12.33,10.39-18.7-1.69-5.58-7.59-15.76-24.39-15.7-15.85.05-26.61,15.75-26.61,30.16,0,19.78,20.17,36.95,39.36,36.95,50.45,0,81.12-27.3,93-38.24a4.42,4.42,0,0,0,.19-6.33c-18.31-18.85-39-35.09-58.73-36.9,23.64,5.39,37.84,20,52.63,38a2.78,2.78,0,0,1-.49,4c-7.33,5.4-12.21,8.8-28.43,16.21-23.31,10.65-45.57,12.35-56.25,8A21.79,21.79,0,0,1,538.39,139c0.12-11.28,7.34-14.88,12.57-14.88,3.14,0,8.33,3.42,8.33,8.62C559.28,140.48,551.49,142.42,551.49,142.42Z"/></svg>